<?xml version="1.0" standalone="no"?>
<!DOCTYPE svg PUBLIC "-//W3C//DTD SVG 20010904//EN"
 "http://www.w3.org/TR/2001/REC-SVG-20010904/DTD/svg10.dtd">
<svg version="1.0" xmlns="http://www.w3.org/2000/svg"
 width="1024.000000pt" height="1024.000000pt" viewBox="0 0 1024.000000 1024.000000"
 preserveAspectRatio="xMidYMid meet">

<g transform="translate(0.000000,1024.000000) scale(0.100000,-0.100000)"
fill="#000000" stroke="none">
<path d="M5465 8350 c-4 -6 -11 -8 -16 -4 -11 7 -99 -43 -99 -56 0 -5 5 -12
10 -15 13 -8 13 -72 -1 -80 -6 -4 -8 -13 -5 -20 4 -11 -5 -13 -42 -8 -26 3
-55 9 -64 14 -23 12 -28 11 -25 -3 1 -7 -7 -13 -18 -13 -11 0 -30 -6 -41 -12
-12 -7 -24 -10 -27 -6 -3 3 -9 -6 -12 -20 -4 -13 -17 -30 -31 -37 -13 -8 -22
-15 -20 -18 3 -2 43 19 90 47 l85 50 90 -54 c49 -30 91 -55 94 -55 2 0 -8 46
-22 102 l-26 102 50 48 c28 26 47 48 43 48 -4 0 -10 -5 -13 -10z"/>
<path d="M4310 8140 c14 -14 36 -33 49 -43 l24 -16 -20 -71 c-11 -38 -19 -70
-18 -70 2 0 31 16 64 36 l60 36 61 -36 c34 -20 63 -36 65 -36 2 0 -6 32 -17
71 l-20 71 23 16 c13 9 37 29 54 44 l30 27 -27 1 c-16 0 -37 -9 -47 -19 -11
-11 -39 -25 -63 -31 -54 -15 -68 -26 -63 -50 4 -22 -29 -50 -57 -50 -14 0 -18
8 -18 33 0 23 -8 41 -28 60 -15 15 -32 27 -37 27 -5 0 -16 6 -25 13 -9 6 -4 1
10 -13z"/>
<path d="M6155 8161 c19 -7 18 -9 -5 -22 -14 -8 -45 -21 -70 -29 -28 -10 -49
-24 -57 -40 -14 -28 -40 -50 -60 -50 -9 0 -13 11 -11 35 1 19 0 36 -2 38 -3 2
-23 16 -45 31 l-40 28 38 -34 38 -34 -15 -64 c-9 -36 -16 -68 -16 -72 0 -4 27
9 60 29 l60 36 59 -37 c58 -36 77 -43 67 -28 -2 4 -11 36 -19 70 l-15 63 55
44 55 45 -49 -1 c-33 0 -42 -3 -28 -8z"/>
<path d="M5000 7920 c-508 -59 -968 -351 -1230 -780 -118 -194 -187 -382 -219
-597 -16 -102 -13 -321 4 -437 8 -55 13 -101 11 -104 -7 -6 -46 131 -63 222
-19 101 -12 405 11 506 58 247 145 439 281 620 81 108 202 233 285 294 61 45
63 48 30 41 -48 -10 -164 -81 -231 -142 -20 -19 -52 -28 -140 -44 -439 -77
-906 -207 -1284 -358 -225 -90 -356 -157 -372 -191 -24 -50 -36 -326 -24 -523
12 -200 13 -286 3 -249 -7 23 -7 22 -59 -15 -51 -38 -51 -38 -55 -99 l-3 -61
52 44 c28 24 58 54 67 66 14 21 15 21 15 -20 1 -49 16 -56 47 -22 10 12 39 35
64 51 l45 30 -50 -43 c-369 -323 -578 -614 -616 -860 -31 -204 79 -363 328
-472 52 -23 155 -51 361 -97 23 -6 55 -10 71 -10 81 0 86 -4 146 -126 33 -66
66 -119 78 -126 12 -7 49 -15 82 -19 l60 -6 -70 -1 c-38 -1 -133 2 -210 7 -77
6 -248 12 -380 16 -132 3 -264 8 -292 11 -32 3 -53 1 -53 -4 0 -6 55 -111 121
-234 67 -122 122 -227 122 -233 0 -5 -32 -95 -71 -200 -130 -343 -141 -372
-142 -343 l0 27 -60 -32 c-33 -17 -62 -39 -66 -47 -3 -8 -25 -69 -49 -135 -24
-66 -80 -217 -125 -335 -45 -118 -94 -250 -109 -292 l-28 -78 36 -6 c20 -3
151 -28 291 -55 328 -64 348 -66 495 -40 454 77 1197 170 1373 171 90 0 120
-14 222 -106 121 -108 357 -303 460 -380 169 -126 394 -275 408 -269 8 3 10 0
6 -7 -5 -8 -2 -9 10 -5 9 4 15 3 11 -2 -7 -12 93 -73 107 -65 7 5 8 2 3 -6 -6
-10 -4 -12 9 -7 11 5 15 3 10 -5 -5 -8 -2 -9 10 -5 9 4 15 3 12 -2 -6 -9 102
-74 269 -161 96 -50 102 -52 165 -47 58 4 81 13 216 85 443 236 840 512 1214
842 41 37 100 86 130 110 l55 43 103 -7 c287 -19 775 -80 1323 -166 69 -11
144 -20 167 -20 23 0 165 24 315 54 149 30 290 57 312 61 22 3 46 9 53 13 13
9 1 45 -168 497 -121 321 -139 367 -140 345 0 -8 -10 1 -21 20 -12 19 -46 64
-77 100 -83 97 -85 99 -68 65 9 -16 16 -39 16 -50 0 -16 2 -17 9 -6 6 10 9 2
8 -24 -1 -28 -3 -33 -9 -19 -4 11 -42 107 -83 214 -42 107 -89 228 -106 268
l-30 73 116 225 116 224 -48 0 c-26 0 -131 -7 -233 -15 -276 -22 -749 -56
-955 -69 l-70 -5 60 10 c33 5 109 16 168 25 60 8 115 18 122 21 8 2 30 34 50
69 37 66 51 82 35 40 -5 -13 -6 -33 -4 -44 5 -17 10 -18 42 -11 21 4 188 31
372 59 421 63 499 78 530 98 14 9 66 37 115 64 59 31 80 46 60 43 -27 -4 -109
-10 -605 -45 -80 -6 -183 -11 -230 -13 l-85 -2 -41 -67 c-22 -37 -44 -71 -49
-75 -4 -5 -5 -3 -2 4 19 31 -41 76 -69 52 -8 -6 7 33 32 87 249 534 405 1129
455 1739 13 155 7 421 -11 503 -12 52 -12 53 -96 102 -335 198 -1017 401
-1630 486 -17 2 -55 23 -85 45 -59 44 -233 133 -251 127 -5 -2 8 -16 31 -32
55 -38 194 -184 262 -276 150 -201 234 -405 255 -619 5 -54 4 -72 -5 -67 -6 4
-11 18 -11 31 0 32 -53 189 -94 278 -93 203 -301 449 -501 592 -226 162 -434
253 -685 300 -101 19 -355 27 -460 15z m400 -91 c101 -14 115 -18 101 -32 -8
-8 -79 -12 -214 -12 -178 -1 -211 -4 -276 -24 -40 -12 -87 -29 -103 -37 -25
-13 -35 -13 -66 -2 -21 7 -80 12 -140 11 -57 0 -101 1 -99 3 8 9 199 63 276
79 169 34 338 39 521 14z m125 -103 c104 -40 188 -90 256 -153 63 -59 119
-132 119 -155 0 -19 -72 -159 -123 -238 -22 -36 -41 -66 -42 -67 0 -1 -82 -7
-181 -13 -102 -6 -220 -19 -270 -30 -49 -11 -100 -20 -114 -20 -17 0 -66 33
-149 99 -69 55 -151 115 -184 133 -106 60 -101 51 -69 143 15 44 48 119 72
167 43 83 47 88 100 112 98 44 179 56 355 52 146 -3 166 -5 230 -30z m589
-354 c76 -26 161 -79 220 -138 82 -81 175 -264 220 -432 23 -85 23 -89 6 -147
-33 -122 -121 -265 -161 -265 -12 0 -57 16 -102 35 -45 19 -122 49 -172 67
l-90 33 -37 114 c-41 125 -116 285 -178 378 l-40 59 82 163 82 163 58 -6 c32
-3 82 -14 112 -24z m762 -37 c123 -32 323 -108 404 -152 163 -88 282 -208 331
-333 29 -77 36 -205 15 -290 -65 -257 -324 -533 -736 -781 -165 -99 -501 -266
-710 -352 -171 -71 -458 -172 -689 -242 -456 -138 -1185 -284 -1581 -315 -258
-20 -267 -21 -235 -10 17 5 72 13 123 16 85 6 272 41 228 43 -52 2 43 37 169
61 33 6 69 14 80 16 16 4 16 2 -4 -9 -42 -25 146 -13 279 17 63 14 119 26 125
26 5 0 4 4 -4 9 -9 6 20 19 90 41 408 129 870 311 1108 434 77 41 90 51 75 59
-16 9 -16 11 2 24 18 13 18 14 -7 10 -14 -3 -53 -19 -87 -36 -86 -44 -91 -38
-7 7 39 21 93 50 120 66 36 20 42 22 23 6 -27 -21 -27 -22 -11 -44 17 -22 20
-22 51 -9 19 8 51 25 71 37 20 13 59 38 88 55 51 32 52 33 37 56 -17 26 -38
26 -78 0 -14 -10 -26 -15 -26 -11 0 3 40 32 88 65 103 69 225 164 301 235 42
39 49 43 31 19 -13 -18 -27 -33 -32 -33 -14 0 -34 -54 -30 -82 2 -16 7 -28 11
-28 14 0 153 124 231 206 41 43 66 72 55 64 -11 -8 3 8 31 35 116 113 247 367
247 478 0 25 3 34 8 25 5 -7 8 29 7 87 -1 55 -3 82 -5 60 -2 -22 -9 -51 -16
-65 -13 -26 -37 -56 -37 -45 0 3 -9 1 -20 -5 -16 -9 -20 -8 -20 6 0 30 -13 5
-21 -39 -5 -27 -6 -15 -2 33 16 235 -92 449 -317 629 l-25 20 89 -20 c49 -10
131 -30 182 -44z m-2856 -36 c-16 -34 -39 -68 -52 -77 -13 -8 -38 -29 -57 -46
l-34 -31 23 35 c24 34 142 180 147 180 1 0 -11 -27 -27 -61z m753 -25 c87 -43
178 -109 265 -191 l84 -78 -41 -205 c-22 -113 -47 -239 -54 -280 l-13 -74
-225 -117 c-123 -65 -236 -120 -251 -124 -30 -7 -79 15 -173 78 -74 50 -225
179 -243 207 -36 58 -20 304 29 468 l22 73 93 65 c125 86 228 141 332 175 107
35 112 35 175 3z m1767 -273 c34 -68 100 -265 100 -297 0 -8 -9 -4 -23 9 -16
15 -30 51 -46 117 -26 107 -50 158 -127 277 -68 106 -84 137 -84 165 0 28 123
-156 180 -271z m-2495 258 c-4 -5 1 -20 11 -32 l18 -22 -23 21 c-20 19 -22 44
-5 44 3 0 2 -5 -1 -11z m-520 -39 c-3 -5 -14 -10 -25 -10 -27 0 -303 -82 -485
-144 -233 -79 -352 -128 -516 -213 l-147 -76 -16 -106 c-8 -58 -16 -156 -17
-218 -2 -109 -3 -112 -29 -131 l-27 -20 -7 81 c-8 104 -8 405 0 435 4 15 25
32 58 49 227 115 589 235 976 324 166 38 247 48 235 29z m559 -129 l48 -65
-12 -51 c-41 -173 -51 -245 -49 -363 l1 -122 -62 -66 c-80 -86 -114 -133 -157
-219 -19 -38 -37 -72 -39 -74 -14 -15 -161 120 -149 139 3 5 1 10 -6 10 -17 0
-4 245 20 369 44 221 117 374 233 487 l81 79 21 -29 c12 -16 43 -59 70 -95z
m3561 54 c49 -28 132 -110 190 -187 164 -218 131 -552 -86 -875 -65 -97 -243
-275 -369 -370 -285 -215 -749 -448 -1210 -608 -130 -45 -477 -145 -499 -144
-9 0 27 16 79 35 813 294 1399 622 1765 989 236 235 348 449 348 665 1 169
-52 299 -172 420 -42 43 -95 87 -118 99 -24 12 -43 24 -43 26 0 7 68 -22 115
-50z m-1904 -112 c0 -5 3 -20 5 -36 3 -18 0 -29 -11 -33 -8 -3 -12 -11 -9 -18
4 -6 -8 4 -25 22 -20 20 -42 32 -58 32 -15 0 -23 3 -20 7 4 3 -1 12 -11 19
-15 11 -7 13 56 14 39 0 72 -3 73 -7z m1316 -265 c-3 -8 -6 -5 -6 6 -1 11 2
17 5 13 3 -3 4 -12 1 -19z m-3658 -15 c0 -5 -45 -37 -99 -72 -113 -74 -302
-233 -408 -345 -105 -111 -189 -228 -237 -331 -55 -116 -69 -179 -62 -272 20
-272 297 -435 837 -494 230 -25 847 -9 1075 27 22 4 38 4 35 2 -8 -9 -162 -49
-205 -54 -56 -6 -147 -32 -115 -33 14 0 47 6 74 14 86 26 60 9 -35 -23 -80
-27 -93 -29 -106 -16 -17 17 -27 19 -17 3 5 -8 -2 -10 -22 -6 -16 3 -90 -6
-166 -19 -152 -26 -372 -54 -434 -54 l-41 0 10 -40 c11 -38 13 -40 52 -41 38
-1 37 -2 -15 -10 -105 -16 -276 -29 -475 -35 -305 -10 -567 21 -780 91 -113
38 -240 102 -259 130 -9 14 -12 25 -6 25 6 0 5 8 -2 20 -7 11 -19 18 -25 15
-7 -2 -13 1 -14 8 0 8 -3 7 -6 -2 -4 -10 -9 -8 -20 10 l-14 24 7 -25 c23 -94
108 -187 224 -245 207 -104 496 -161 890 -174 l205 -7 -120 -8 c-211 -15 -608
12 -800 54 -174 38 -332 104 -417 173 -149 122 -159 312 -29 537 69 120 149
219 296 365 279 279 638 523 1150 784 63 32 75 36 74 24z m3538 -105 c-3 -8
-6 -5 -6 6 -1 11 2 17 5 13 3 -3 4 -12 1 -19z m-844 -193 c81 -19 132 -37 234
-81 l82 -37 7 -66 c3 -36 7 -75 8 -86 2 -35 -164 -177 -365 -313 -124 -83
-456 -269 -465 -260 -2 3 0 90 6 194 5 104 10 212 10 240 l0 51 113 96 c61 52
152 136 202 186 49 50 93 91 97 91 4 0 35 -7 71 -15z m-947 -114 c50 -26 138
-77 195 -113 57 -36 130 -80 162 -99 l57 -34 2 -90 c2 -114 1 -167 -7 -285
l-7 -95 -100 -50 c-55 -27 -110 -59 -124 -70 -23 -20 -115 -59 -164 -70 -22
-4 -21 -3 5 10 17 8 54 24 83 36 29 12 51 23 49 26 -2 2 -33 -5 -68 -16 -35
-11 -105 -29 -155 -41 -66 -15 -98 -28 -114 -45 l-23 -25 -106 57 c-58 31
-144 82 -191 113 l-86 58 -13 78 c-7 44 -15 88 -17 99 -11 56 -12 237 -2 292
l11 63 91 54 c155 91 373 195 411 196 11 0 61 -22 111 -49z m1624 -33 l-32
-33 27 38 c15 21 30 35 32 33 3 -3 -9 -20 -27 -38z m-42 -58 c-7 -11 -17 -20
-22 -20 -5 0 -1 9 9 20 10 11 20 20 22 20 2 0 -2 -9 -9 -20z m-28 -33 c0 -2
-17 -19 -37 -38 l-38 -34 34 38 c33 34 41 42 41 34z m-2899 -133 c9 -5 26 -44
38 -88 37 -133 104 -265 198 -387 40 -51 43 -60 43 -117 0 -66 -8 -74 -42 -42
-11 10 -36 26 -54 35 -42 20 -131 141 -189 255 -46 91 -95 237 -120 358 -25
122 -24 123 48 55 34 -33 69 -64 78 -69z m840 -580 c135 -81 141 -85 137 -90
-3 -2 -70 -15 -149 -29 -207 -35 -452 -57 -476 -42 -15 10 -24 78 -17 131 l7
46 61 0 c33 1 106 9 161 19 161 30 168 29 276 -35z m1015 -29 c-11 -8 -25 -15
-30 -15 -6 1 0 7 14 15 32 19 40 18 16 0z m-56 -25 c-8 -5 -19 -10 -25 -10 -5
0 -3 5 5 10 8 5 20 10 25 10 6 0 3 -5 -5 -10z m-723 -286 c-3 -3 -12 -4 -19
-1 -8 3 -5 6 6 6 11 1 17 -2 13 -5z m-260 -80 c-3 -3 -12 -4 -19 -1 -8 3 -5 6
6 6 11 1 17 -2 13 -5z m-1004 -81 c-7 -2 -19 -2 -25 0 -7 3 -2 5 12 5 14 0 19
-2 13 -5z m169 -410 l3 -138 133 0 132 0 0 -52 0 -53 -210 0 -210 0 0 190 0
190 75 0 74 0 3 -137z m518 -53 l0 -190 -75 0 -75 0 0 140 c0 110 -3 141 -14
147 -11 6 -13 19 -9 51 l6 42 83 0 84 0 0 -190z m528 176 c69 -36 80 -98 20
-110 -52 -10 -95 -7 -108 9 -16 19 -150 21 -168 3 -18 -18 -16 -142 2 -157 17
-14 100 -23 139 -15 18 4 27 12 27 25 0 16 -7 19 -45 19 l-45 0 0 40 0 41 118
-3 117 -3 3 -77 c3 -68 0 -79 -20 -97 -34 -32 -81 -41 -223 -41 -144 0 -181
11 -219 63 -18 24 -21 43 -21 127 0 112 13 141 76 172 45 24 304 26 347 4z
m492 5 c0 -5 40 -90 88 -190 l88 -181 -84 0 -83 0 -10 30 -11 30 -94 0 -93 0
-16 -30 c-15 -29 -17 -30 -91 -30 -42 0 -74 3 -72 8 2 4 45 89 96 190 l93 182
94 0 c52 0 95 -4 95 -9z m824 -5 c62 -26 76 -56 76 -168 0 -179 -17 -192 -282
-196 l-188 -4 0 124 c0 68 -3 153 -7 191 l-6 67 187 0 c136 0 196 -4 220 -14z
m616 -36 l0 -50 -140 0 -140 0 0 -25 c0 -25 0 -25 95 -25 l95 0 0 -42 0 -43
-97 0 c-91 0 -98 -1 -98 -20 0 -18 8 -20 99 -23 55 -1 119 1 143 6 l43 10 0
-59 0 -59 -215 0 -215 0 0 129 c0 70 -3 156 -6 190 l-7 61 222 0 221 0 0 -50z
m-4011 -113 c17 -40 44 -97 60 -128 l29 -56 -27 0 c-17 0 -31 8 -38 21 -6 12
-20 39 -31 61 -12 22 -34 70 -51 107 -26 59 -27 67 -13 71 30 6 39 -3 71 -76z
m-84 -357 c105 0 197 1 205 2 36 5 260 -15 260 -24 0 -5 5 -6 10 -3 27 16 0
-131 -29 -162 -10 -10 -21 -31 -24 -45 -7 -25 -12 -27 -79 -33 -40 -3 -163 -4
-273 -1 -110 3 -278 6 -373 6 l-173 0 5 23 c3 12 3 16 0 10 -10 -23 -22 -14
-35 25 -6 20 -25 62 -40 92 -33 63 -36 78 -11 59 14 -11 13 -10 -2 9 -11 12
-23 22 -28 22 -5 0 -15 6 -22 13 -10 10 31 12 203 10 119 -1 302 -2 406 -3z
m1189 -62 c-18 -35 -34 -72 -34 -83 -1 -24 -39 -96 -40 -75 0 13 -14 15 -80
12 -55 -3 -80 -1 -80 7 0 6 20 54 44 106 l45 95 89 0 90 0 -34 -62z m4141 -52
c-8 -31 -15 -66 -15 -77 0 -11 -7 -22 -16 -26 -11 -4 -13 -13 -9 -34 4 -16 2
-29 -3 -29 -5 0 -7 -12 -4 -26 4 -20 2 -25 -8 -19 -9 6 -11 -2 -5 -33 7 -44
-3 -115 -15 -107 -5 3 -15 -25 -24 -62 -24 -108 -58 -294 -54 -298 1 -2 100
-6 218 -10 118 -4 230 -10 249 -14 32 -6 35 -11 87 -140 29 -74 52 -136 51
-138 -3 -2 -88 4 -292 22 -33 3 -121 9 -195 15 -74 6 -157 12 -185 15 -27 2
-104 7 -170 11 -66 3 -124 9 -129 14 -9 9 0 65 65 400 37 193 47 266 29 210
-8 -24 -8 -24 -9 5 0 28 13 102 25 135 4 13 6 13 14 0 6 -9 10 -10 10 -3 0 6
-5 15 -11 18 -6 5 -4 11 7 19 12 10 15 20 10 40 -4 18 -3 25 4 21 12 -8 13 8
1 21 -6 5 -4 32 4 69 10 46 13 53 15 30 1 -18 4 -23 7 -12 4 14 17 17 71 19
l67 2 -65 5 c-46 4 -14 7 110 11 96 3 176 5 177 4 2 0 -4 -26 -12 -58z m-3995
44 c-15 -5 33 -8 123 -9 110 -1 147 -4 147 -13 0 -9 4 -8 10 2 8 13 10 13 10
-1 0 -25 -25 -80 -33 -72 -4 3 -7 -2 -7 -13 0 -10 -9 -59 -20 -109 -89 -394
-124 -534 -141 -567 -29 -56 -72 -101 -127 -131 -91 -50 -144 -57 -437 -60
-263 -2 -271 -1 -320 21 -61 28 -93 57 -111 99 -25 59 -19 117 41 388 23 103
28 135 16 110 l-10 -20 0 20 c-1 23 41 230 59 295 12 42 14 43 21 20 6 -22 7
-23 8 -4 1 21 7 22 140 29 163 8 185 4 176 -32 -3 -15 -2 -29 4 -32 6 -4 4
-26 -4 -61 -7 -30 -14 -46 -15 -35 -2 17 -3 16 -9 -5 -5 -14 -6 -39 -3 -57 6
-44 -18 -163 -34 -170 -9 -3 -11 -15 -7 -35 5 -24 3 -29 -7 -23 -10 6 -12 4
-7 -8 3 -9 2 -17 -2 -19 -5 -2 -18 -46 -30 -98 -21 -93 -21 -95 -3 -120 16
-21 30 -26 99 -34 115 -12 206 -1 243 31 32 26 41 52 71 201 21 104 22 119 8
83 -20 -51 -17 -10 11 124 24 116 54 234 75 303 3 7 21 12 47 11 36 -1 39 -2
18 -9z m2777 4 c-3 -3 -12 -4 -19 -1 -8 3 -5 6 6 6 11 1 17 -2 13 -5z m-867
-17 c225 -2 271 -5 304 -20 45 -20 49 -21 40 -5 -4 7 -3 8 5 4 6 -4 9 -11 6
-15 -2 -5 7 -19 22 -32 l26 -24 -18 30 c-16 27 -16 28 0 10 31 -36 55 -99 54
-145 -1 -50 -16 -111 -18 -75 -1 11 -10 -3 -19 -31 -10 -28 -26 -63 -35 -78
-19 -29 -104 -76 -139 -77 -15 0 -8 -5 21 -14 89 -28 120 -89 101 -198 -23
-128 -75 -196 -184 -241 -48 -20 -72 -21 -443 -24 -241 -2 -393 0 -393 6 0 5
20 109 45 231 27 130 43 232 39 248 -4 19 -3 24 4 15 12 -18 23 34 16 79 -3
19 4 79 15 134 11 55 23 129 27 165 l6 65 127 -2 c69 -2 245 -4 391 -6z m1402
-11 c24 -8 52 -17 62 -21 15 -7 17 -5 11 6 -7 12 -6 12 11 -1 29 -22 30 -24
12 -17 -24 9 -23 5 9 -24 15 -13 23 -17 18 -9 -6 9 -2 7 8 -4 10 -10 15 -26
13 -33 -3 -8 -2 -12 3 -8 13 8 34 -62 25 -83 -4 -9 -8 -52 -8 -95 -1 -59 -5
-82 -17 -90 -10 -8 -27 -70 -48 -172 -48 -234 -88 -308 -195 -360 -84 -41
-189 -50 -442 -38 -182 9 -229 14 -275 32 -109 41 -160 137 -138 260 10 53 46
243 55 286 2 11 -3 7 -11 -10 -19 -39 -18 -24 1 71 17 82 33 126 34 91 0 -10
17 14 38 54 25 49 51 84 79 105 23 18 39 35 35 40 -4 4 -2 4 4 1 7 -4 29 0 49
9 21 8 65 19 99 24 93 12 517 2 568 -14z m-1998 8 c9 -3 14 -10 11 -15 -3 -4
-8 -25 -10 -46 -6 -47 -9 -61 -22 -93 -6 -14 -12 -34 -14 -45 -4 -19 -13 -20
-156 -23 l-152 -3 -15 -70 c-9 -38 -39 -181 -67 -317 -27 -136 -55 -264 -60
-284 l-10 -38 -159 0 c-185 0 -170 -13 -140 125 80 374 97 464 80 430 -8 -15
-9 -7 -4 30 3 28 8 60 11 73 l5 22 -148 0 c-81 0 -145 3 -142 6 4 3 37 9 75
13 l68 8 -64 2 -64 1 6 43 c5 31 4 37 -4 22 -6 -14 -8 1 -4 50 3 39 5 80 5 93
l0 22 479 0 c264 0 486 -3 495 -6z m1142 -181 c-8 -15 -15 -25 -16 -21 0 12
23 58 27 54 3 -2 -2 -17 -11 -33z m-4290 -51 c-11 -10 -14 3 -8 33 l7 30 3
-28 c2 -16 1 -31 -2 -35z m349 12 c-4 -23 -3 -34 4 -30 14 9 1 -97 -13 -106
-6 -4 89 -8 212 -8 122 0 222 -3 222 -7 -1 -5 -13 -60 -28 -123 l-28 -115
-229 -8 c-127 -5 -231 -10 -232 -11 -1 0 -21 -87 -46 -191 l-44 -190 -177 -19
c-97 -10 -179 -16 -182 -13 -3 3 24 121 61 263 36 142 64 267 61 278 -7 27 4
72 14 56 4 -7 15 20 25 62 10 40 26 101 37 136 l19 62 166 0 165 0 -7 -36z
m2480 -24 c3 -5 1 -10 -4 -10 -6 0 -11 5 -11 10 0 6 2 10 4 10 3 0 8 -4 11
-10z m-2841 -27 c-4 -16 -11 -35 -16 -43 -7 -11 -8 -8 -4 10 3 14 6 33 6 43 0
9 5 17 10 17 6 0 8 -11 4 -27z m5403 -135 c-3 -8 -6 -5 -6 6 -1 11 2 17 5 13
3 -3 4 -12 1 -19z m-1170 -50 c-3 -7 -5 -2 -5 12 0 14 2 19 5 13 2 -7 2 -19 0
-25z m217 -756 c6 -3 54 -4 108 -3 68 2 98 -1 98 -9 0 -6 5 -8 12 -4 21 13
453 -9 778 -41 85 -8 166 -15 180 -16 24 -1 24 -1 -5 -12 l-30 -11 35 -7 35
-6 -37 -2 c-21 0 -38 2 -38 7 0 4 -44 8 -98 9 -53 1 -236 14 -407 28 -170 14
-346 28 -390 32 -52 4 -73 9 -60 14 11 4 -36 7 -105 6 -116 -1 -648 20 -715
28 -16 2 118 1 300 -2 181 -3 334 -8 339 -11z m-2471 1 c-13 -2 -35 -2 -50 0
-16 2 -5 4 22 4 28 0 40 -2 28 -4z m75 0 c-10 -2 -26 -2 -35 0 -10 3 -2 5 17
5 19 0 27 -2 18 -5z m-485 -10 c-7 -2 -19 -2 -25 0 -7 3 -2 5 12 5 14 0 19 -2
13 -5z m296 3 c-8 -8 -234 -12 -259 -5 -14 4 40 7 119 8 79 1 142 -1 140 -3z
m-384 -16 c28 -6 11 -7 -55 -3 -52 3 -97 7 -99 9 -8 8 115 3 154 -6z m-292 -7
c-18 -2 -48 -2 -65 0 -18 2 -4 4 32 4 36 0 50 -2 33 -4z m-130 -10 c-13 -2
-35 -2 -50 0 -16 2 -5 4 22 4 28 0 40 -2 28 -4z m-45 -30 c-10 -2 -26 -2 -35
0 -10 3 -2 5 17 5 19 0 27 -2 18 -5z m-461 -9 c-3 -3 -12 -4 -19 -1 -8 3 -5 6
6 6 11 1 17 -2 13 -5z m5176 -11 c-7 -2 -21 -2 -30 0 -10 3 -4 5 12 5 17 0 24
-2 18 -5z m132 -13 c33 -5 96 -16 140 -24 l80 -14 -115 3 c-63 2 -130 3 -147
4 -22 1 -33 6 -33 16 0 8 -7 15 -15 15 -8 0 -15 -4 -15 -10 0 -5 -17 -9 -37
-8 -37 1 -37 1 -5 5 17 2 32 8 32 14 0 11 38 11 115 -1z m-1695 -35 c0 -5
-185 -156 -270 -221 -124 -95 -350 -250 -471 -322 -108 -65 -364 -190 -404
-198 -24 -4 -65 12 -220 90 -302 151 -515 292 -820 543 l-120 98 52 3 c50 3
52 2 170 -86 274 -207 587 -391 872 -513 l54 -23 66 23 c162 57 492 233 713
381 96 65 255 188 278 214 8 10 27 15 56 14 24 -1 44 -3 44 -3z m-4043 -11
c-3 -3 -12 -4 -19 -1 -8 3 -5 6 6 6 11 1 17 -2 13 -5z m1400 -37 c12 -18 182
-171 323 -288 234 -195 457 -351 710 -494 130 -74 429 -225 446 -225 12 0 13
-10 8 -52 -4 -29 -8 -54 -9 -56 -11 -13 -204 81 -349 168 -22 14 -37 19 -33
13 11 -18 -10 -25 -33 -13 -16 9 -19 15 -10 25 8 10 3 18 -24 35 -20 12 -40
19 -45 16 -5 -4 -13 -1 -17 5 -5 8 -3 9 7 4 43 -24 -19 21 -116 85 -311 206
-728 558 -835 704 -38 53 -62 76 -80 79 -18 3 -14 4 12 6 20 0 41 -5 45 -12z
m5136 -22 c-24 -11 -30 -19 -26 -35 6 -23 2 -24 -56 -7 l-44 13 59 18 c33 10
64 19 69 21 27 9 26 2 -2 -10z m-7218 -15 c13 -5 14 -9 5 -9 -8 0 -24 4 -35 9
-13 5 -14 9 -5 9 8 0 24 -4 35 -9z m5748 3 c-7 -2 -21 -2 -30 0 -10 3 -4 5 12
5 17 0 24 -2 18 -5z m90 -10 c-7 -2 -21 -2 -30 0 -10 3 -4 5 12 5 17 0 24 -2
18 -5z m-5768 -13 c13 -5 14 -9 5 -9 -8 0 -24 4 -35 9 -13 5 -14 9 -5 9 8 0
24 -4 35 -9z m5968 -7 c-7 -2 -19 -2 -25 0 -7 3 -2 5 12 5 14 0 19 -2 13 -5z
m90 -10 c-7 -2 -21 -2 -30 0 -10 3 -4 5 12 5 17 0 24 -2 18 -5z m-5060 -10
c-7 -2 -21 -2 -30 0 -10 3 -4 5 12 5 17 0 24 -2 18 -5z m5150 0 c-7 -2 -21 -2
-30 0 -10 3 -4 5 12 5 17 0 24 -2 18 -5z m-5215 -10 c-10 -2 -28 -2 -40 0 -13
2 -5 4 17 4 22 1 32 -1 23 -4z m5285 0 c-7 -2 -21 -2 -30 0 -10 3 -4 5 12 5
17 0 24 -2 18 -5z m65 -10 c-10 -2 -26 -2 -35 0 -10 3 -2 5 17 5 19 0 27 -2
18 -5z m75 -10 c-7 -2 -21 -2 -30 0 -10 3 -4 5 12 5 17 0 24 -2 18 -5z m60
-10 c-7 -2 -19 -2 -25 0 -7 3 -2 5 12 5 14 0 19 -2 13 -5z m-5796 -9 c-3 -3
-12 -4 -19 -1 -8 3 -5 6 6 6 11 1 17 -2 13 -5z m-54 -11 c-7 -2 -19 -2 -25 0
-7 3 -2 5 12 5 14 0 19 -2 13 -5z m6040 -10 c-7 -2 -19 -2 -25 0 -7 3 -2 5 12
5 14 0 19 -2 13 -5z m44 -9 c-3 -3 -12 -4 -19 -1 -8 3 -5 6 6 6 11 1 17 -2 13
-5z m-2938 -781 c-34 -31 -57 -41 -118 -54 -42 -9 -77 -16 -79 -14 -1 1 32 17
75 34 43 18 94 41 113 51 52 29 55 24 9 -17z"/>
<path d="M5965 5591 c-3 -5 -2 -12 3 -15 5 -3 9 1 9 9 0 17 -3 19 -12 6z"/>
<path d="M4318 4963 c7 -3 16 -2 19 1 4 3 -2 6 -13 5 -11 0 -14 -3 -6 -6z"/>
<path d="M4063 4923 c9 -2 23 -2 30 0 6 3 -1 5 -18 5 -16 0 -22 -2 -12 -5z"/>
<path d="M1911 5294 c0 -11 3 -14 6 -6 3 7 2 16 -1 19 -3 4 -6 -2 -5 -13z"/>
<path d="M4168 5173 c7 -3 16 -2 19 1 4 3 -2 6 -13 5 -11 0 -14 -3 -6 -6z"/>
<path d="M2728 5103 c7 -3 16 -2 19 1 4 3 -2 6 -13 5 -11 0 -14 -3 -6 -6z"/>
<path d="M2833 5083 c9 -2 23 -2 30 0 6 3 -1 5 -18 5 -16 0 -22 -2 -12 -5z"/>
<path d="M2928 5073 c12 -2 30 -2 40 0 9 3 -1 5 -23 4 -22 0 -30 -2 -17 -4z"/>
<path d="M3025 5061 c11 -4 56 -4 100 -1 l80 7 -100 1 c-55 0 -91 -3 -80 -7z"/>
<path d="M3278 5063 c29 -2 74 -2 100 0 26 2 2 3 -53 3 -55 0 -76 -1 -47 -3z"/>
<path d="M3453 4993 c9 -2 23 -2 30 0 6 3 -1 5 -18 5 -16 0 -22 -2 -12 -5z"/>
<path d="M3190 4980 l-35 -7 43 -2 c27 0 41 3 37 9 -3 6 -7 9 -8 9 -1 -1 -18
-5 -37 -9z"/>
<path d="M5187 4555 c-15 -30 -27 -56 -27 -58 0 -6 100 -5 104 1 2 4 -8 31
-23 60 l-27 52 -27 -55z"/>
<path d="M5900 4540 l0 -90 69 0 c90 0 101 10 101 94 0 35 -5 67 -12 74 -7 7
-42 12 -85 12 l-73 0 0 -90z"/>
<path d="M7840 4134 c59 -8 140 -8 140 -1 0 4 -37 6 -82 6 -46 -1 -72 -3 -58
-5z"/>
<path d="M7972 4090 c0 -14 2 -19 5 -12 2 6 2 18 0 25 -3 6 -5 1 -5 -13z"/>
<path d="M7632 4070 c0 -14 2 -19 5 -12 2 6 2 18 0 25 -3 6 -5 1 -5 -13z"/>
<path d="M7961 4014 c0 -11 3 -14 6 -6 3 7 2 16 -1 19 -3 4 -6 -2 -5 -13z"/>
<path d="M7581 3814 c0 -11 3 -14 6 -6 3 7 2 16 -1 19 -3 4 -6 -2 -5 -13z"/>
<path d="M3941 4094 c0 -11 3 -14 6 -6 3 7 2 16 -1 19 -3 4 -6 -2 -5 -13z"/>
<path d="M3931 4054 c0 -11 3 -14 6 -6 3 7 2 16 -1 19 -3 4 -6 -2 -5 -13z"/>
<path d="M6331 3934 c0 -11 3 -14 6 -6 3 7 2 16 -1 19 -3 4 -6 -2 -5 -13z"/>
<path d="M5705 3844 c0 -54 -4 -68 -20 -80 -17 -13 -3 -14 125 -12 80 2 143 5
140 8 -2 3 3 16 13 30 9 13 17 36 17 50 0 14 6 32 12 38 24 24 -14 32 -152 32
l-135 0 0 -66z"/>
<path d="M5991 3842 c0 -13 -6 -32 -12 -44 -6 -11 -8 -22 -5 -25 9 -9 27 49
23 71 -4 19 -4 19 -6 -2z"/>
<path d="M5622 3518 c-6 -29 -14 -68 -17 -85 l-7 -33 141 0 c77 0 151 4 166
10 28 11 55 62 55 104 0 50 -19 56 -179 56 l-148 0 -11 -52z"/>
<path d="M6811 3883 c-43 -22 -52 -45 -90 -232 -38 -190 -38 -204 -5 -230 24
-19 40 -21 158 -21 183 1 181 -1 227 233 33 175 36 229 12 248 -11 10 -53 15
-142 17 -103 2 -132 -1 -160 -15z"/>
<path d="M6431 3854 c0 -11 3 -14 6 -6 3 7 2 16 -1 19 -3 4 -6 -2 -5 -13z"/>
<path d="M4488 3893 c12 -2 30 -2 40 0 9 3 -1 5 -23 4 -22 0 -30 -2 -17 -4z"/>
<path d="M7950 2800 c0 -6 26 -10 57 -10 68 0 67 5 -4 13 -31 4 -53 2 -53 -3z"/>
<path d="M8078 2783 c7 -3 16 -2 19 1 4 3 -2 6 -13 5 -11 0 -14 -3 -6 -6z"/>
<path d="M1652 4555 c3 -3 29 -7 59 -10 30 -3 172 -16 316 -30 144 -15 278
-25 298 -23 l35 3 -22 32 -23 33 -334 0 c-184 0 -332 -2 -329 -5z"/>
</g>
</svg>
